<svg xmlns="http://www.w3.org/2000/svg" viewBox="0 0 600 400" fill="none">
  <defs>
    <radialGradient id="insightGlow" cx="50%" cy="50%" r="50%">
      <stop offset="0%" stop-color="#355B4A" stop-opacity="0.09"/>
      <stop offset="70%" stop-color="#355B4A" stop-opacity="0.03"/>
      <stop offset="100%" stop-color="#355B4A" stop-opacity="0"/>
    </radialGradient>

    <linearGradient id="unknownCore" x1="0" y1="0" x2="1" y2="1">
      <stop offset="0%" stop-color="#FFFFFF"/>
      <stop offset="100%" stop-color="#6FAF9F"/>
    </linearGradient>
  </defs>

  <rect width="600" height="400" fill="#F6F4EF"/>
  <rect width="600" height="400" fill="url(#insightGlow)"/>

  <circle cx="300" cy="200" r="120" stroke="#1E2B25" stroke-opacity="0.12" stroke-width="1"/>
  <circle cx="300" cy="200" r="90" stroke="#355B4A" stroke-opacity="0.13" stroke-width="0.9"/>

  <g>
    <circle cx="180" cy="120" r="1.4" fill="#1E2B25" fill-opacity="0.34"/>
    <circle cx="240" cy="90" r="1.2" fill="#355B4A" fill-opacity="0.36"/>
    <circle cx="360" cy="92" r="1.3" fill="#1E2B25" fill-opacity="0.30"/>
    <circle cx="430" cy="140" r="1.2" fill="#355B4A" fill-opacity="0.34"/>
    <circle cx="440" cy="230" r="1.3" fill="#1E2B25" fill-opacity="0.28"/>
    <circle cx="380" cy="300" r="1.2" fill="#355B4A" fill-opacity="0.28"/>
    <circle cx="220" cy="300" r="1.2" fill="#1E2B25" fill-opacity="0.28"/>
    <circle cx="160" cy="240" r="1.3" fill="#355B4A" fill-opacity="0.30"/>
  </g>

  <g stroke="#355B4A" stroke-opacity="0.10" stroke-width="0.8">
    <line x1="240" y1="90" x2="300" y2="160"/>
    <line x1="360" y1="92" x2="300" y2="160"/>
    <line x1="380" y1="300" x2="300" y2="240"/>
    <line x1="220" y1="300" x2="300" y2="240"/>
  </g>

  <circle cx="300" cy="200" r="18" fill="url(#unknownCore)" opacity="0.92"/>

  <circle cx="300" cy="200" r="52"
    stroke="#355B4A"
    stroke-opacity="0.22"
    stroke-width="1"
    stroke-dasharray="3 6"/>

  <path d="M260 210 C275 195 325 195 340 210"
    stroke="#355B4A"
    stroke-opacity="0.26"
    stroke-width="1.2"
    stroke-linecap="round"/>

  <path d="M270 228 C282 215 318 215 330 228"
    stroke="#1E2B25"
    stroke-opacity="0.18"
    stroke-width="1"
    stroke-linecap="round"/>
</svg>
