<svg xmlns="http://www.w3.org/2000/svg" viewBox="0 0 600 400" fill="none">
  <defs>
    <radialGradient id="bgGlow" cx="50%" cy="50%" r="50%">
      <stop offset="0%" stop-color="#355B4A" stop-opacity="0.10"/>
      <stop offset="68%" stop-color="#355B4A" stop-opacity="0.035"/>
      <stop offset="100%" stop-color="#355B4A" stop-opacity="0"/>
    </radialGradient>

    <linearGradient id="leafIvory" x1="0" y1="0" x2="0" y2="1">
      <stop offset="0%" stop-color="#FFFFFF"/>
      <stop offset="100%" stop-color="#F2EEE5"/>
    </linearGradient>

    <linearGradient id="leafTech" x1="0" y1="0" x2="0" y2="1">
      <stop offset="0%" stop-color="#6FAF9F"/>
      <stop offset="100%" stop-color="#355B4A"/>
    </linearGradient>

    <filter id="leafGlow" x="-30%" y="-30%" width="160%" height="160%">
      <feGaussianBlur stdDeviation="10" result="blur"/>
    </filter>

    <clipPath id="leafShape">
      <path d="M300 118
        C286 136 272 166 268 196
        C264 228 278 254 300 276
        C322 254 336 228 332 196
        C328 166 314 136 300 118Z"/>
    </clipPath>
  </defs>

  <rect width="600" height="400" fill="#F6F4EF"/>
  <rect width="600" height="400" fill="url(#bgGlow)"/>

  <circle cx="300" cy="198" r="126" fill="#355B4A" opacity="0.05" filter="url(#leafGlow)"/>

  <circle cx="300" cy="198" r="116" stroke="#1E2B25" stroke-opacity="0.16" stroke-width="1.2"/>
  <circle cx="300" cy="198" r="84" stroke="#355B4A" stroke-opacity="0.18" stroke-width="1"/>

  <g>
    <circle cx="300" cy="82" r="1.8" fill="#1E2B25" fill-opacity="0.75"/>
    <circle cx="354" cy="94" r="1.5" fill="#1E2B25" fill-opacity="0.52"/>
    <circle cx="406" cy="126" r="1.6" fill="#355B4A" fill-opacity="0.66"/>
    <circle cx="420" cy="194" r="1.4" fill="#1E2B25" fill-opacity="0.46"/>
    <circle cx="404" cy="266" r="1.6" fill="#355B4A" fill-opacity="0.58"/>
    <circle cx="350" cy="302" r="1.5" fill="#1E2B25" fill-opacity="0.48"/>
    <circle cx="300" cy="314" r="1.8" fill="#1E2B25" fill-opacity="0.66"/>
    <circle cx="248" cy="300" r="1.5" fill="#355B4A" fill-opacity="0.52"/>
    <circle cx="194" cy="264" r="1.4" fill="#1E2B25" fill-opacity="0.40"/>
    <circle cx="178" cy="194" r="1.5" fill="#355B4A" fill-opacity="0.46"/>
    <circle cx="194" cy="126" r="1.6" fill="#1E2B25" fill-opacity="0.44"/>
    <circle cx="246" cy="94" r="1.5" fill="#355B4A" fill-opacity="0.50"/>
  </g>

  <g stroke="#355B4A" stroke-opacity="0.13" stroke-width="0.8">
    <line x1="246" y1="94" x2="300" y2="118"/>
    <line x1="354" y1="94" x2="300" y2="118"/>
    <line x1="406" y1="126" x2="336" y2="162"/>
    <line x1="404" y1="266" x2="330" y2="236"/>
    <line x1="248" y1="300" x2="274" y2="246"/>
    <line x1="194" y1="126" x2="264" y2="162"/>
  </g>

  <path d="M254 208 C270 192 286 184 300 184 C314 184 330 192 346 208"
    stroke="#355B4A" stroke-opacity="0.32" stroke-width="1.5" stroke-linecap="round"/>
  <path d="M266 226 C278 214 289 208 300 208 C311 208 322 214 334 226"
    stroke="#1E2B25" stroke-opacity="0.22" stroke-width="1.1" stroke-linecap="round"/>

  <g clip-path="url(#leafShape)">
    <rect x="250" y="108" width="50" height="180" fill="url(#leafIvory)"/>
    <rect x="300" y="108" width="50" height="180" fill="url(#leafTech)"/>

    <g stroke="#F7FFFB" stroke-opacity="0.28" stroke-width="1">
      <path d="M300 270 L300 120"/>
      <path d="M300 150 L320 166"/>
      <path d="M300 178 L328 194"/>
      <path d="M300 206 L326 228"/>
      <path d="M300 234 L318 252"/>
      <path d="M312 146 L324 156"/>
      <path d="M314 170 L330 180"/>
      <path d="M314 194 L330 206"/>
      <path d="M312 218 L326 230"/>
    </g>
  </g>

  <path d="M300 118
    C286 136 272 166 268 196
    C264 228 278 254 300 276
    C322 254 336 228 332 196
    C328 166 314 136 300 118Z"
    stroke="#1E2B25" stroke-opacity="0.24" stroke-width="1.1"/>

  <path d="M300 276 L300 302" stroke="#1E2B25" stroke-opacity="0.36" stroke-width="1.4" stroke-linecap="round"/>
</svg>
