<svg xmlns="http://www.w3.org/2000/svg" viewBox="0 0 600 400" fill="none">
  <defs>
    <radialGradient id="ssGlow" cx="50%" cy="50%" r="50%">
      <stop offset="0%" stop-color="#355B4A" stop-opacity="0.10"/>
      <stop offset="68%" stop-color="#355B4A" stop-opacity="0.035"/>
      <stop offset="100%" stop-color="#355B4A" stop-opacity="0"/>
    </radialGradient>

    <linearGradient id="ssLeafIvory" x1="0" y1="0" x2="0" y2="1">
      <stop offset="0%" stop-color="#FFFFFF"/>
      <stop offset="100%" stop-color="#F2EEE5"/>
    </linearGradient>

    <linearGradient id="ssLeafTech" x1="0" y1="0" x2="0" y2="1">
      <stop offset="0%" stop-color="#6FAF9F"/>
      <stop offset="100%" stop-color="#355B4A"/>
    </linearGradient>

    <clipPath id="ssLeafShape">
      <path d="M300 140
        C288 154 278 176 276 198
        C274 224 286 244 300 258
        C314 244 326 224 324 198
        C322 176 312 154 300 140Z"/>
    </clipPath>
  </defs>

  <rect width="600" height="400" fill="#F6F4EF"/>
  <rect width="600" height="400" fill="url(#ssGlow)"/>

  <circle cx="300" cy="200" r="112" stroke="#1E2B25" stroke-opacity="0.14" stroke-width="1.1"/>
  <circle cx="300" cy="200" r="82" stroke="#355B4A" stroke-opacity="0.16" stroke-width="0.9"/>

  <g>
    <circle cx="300" cy="112" r="2.2" fill="#1E2B25" fill-opacity="0.78"/>
    <circle cx="356" cy="132" r="1.9" fill="#355B4A" fill-opacity="0.74"/>
    <circle cx="394" cy="172" r="1.8" fill="#1E2B25" fill-opacity="0.62"/>
    <circle cx="404" cy="228" r="1.8" fill="#355B4A" fill-opacity="0.70"/>
    <circle cx="366" cy="274" r="1.9" fill="#1E2B25" fill-opacity="0.60"/>
    <circle cx="300" cy="290" r="2.2" fill="#1E2B25" fill-opacity="0.78"/>
    <circle cx="236" cy="274" r="1.8" fill="#355B4A" fill-opacity="0.66"/>
    <circle cx="194" cy="228" r="1.8" fill="#1E2B25" fill-opacity="0.54"/>
    <circle cx="204" cy="172" r="1.9" fill="#355B4A" fill-opacity="0.64"/>
    <circle cx="244" cy="132" r="1.8" fill="#1E2B25" fill-opacity="0.52"/>

    <circle cx="448" cy="154" r="1.1" fill="#355B4A" fill-opacity="0.30"/>
    <circle cx="470" cy="238" r="1.1" fill="#1E2B25" fill-opacity="0.28"/>
    <circle cx="408" cy="320" r="1.0" fill="#355B4A" fill-opacity="0.24"/>
    <circle cx="188" cy="320" r="1.0" fill="#1E2B25" fill-opacity="0.22"/>
    <circle cx="128" cy="238" r="1.1" fill="#355B4A" fill-opacity="0.24"/>
    <circle cx="150" cy="154" r="1.0" fill="#1E2B25" fill-opacity="0.24"/>
  </g>

  <g stroke="#355B4A" stroke-width="0.8" stroke-opacity="0.14">
    <line x1="300" y1="112" x2="356" y2="132"/>
    <line x1="356" y1="132" x2="394" y2="172"/>
    <line x1="394" y1="172" x2="404" y2="228"/>
    <line x1="404" y1="228" x2="366" y2="274"/>
    <line x1="366" y1="274" x2="300" y2="290"/>
    <line x1="300" y1="290" x2="236" y2="274"/>
    <line x1="236" y1="274" x2="194" y2="228"/>
    <line x1="194" y1="228" x2="204" y2="172"/>
    <line x1="204" y1="172" x2="244" y2="132"/>
    <line x1="244" y1="132" x2="300" y2="112"/>

    <line x1="394" y1="172" x2="448" y2="154" stroke-dasharray="4 5" stroke-opacity="0.08"/>
    <line x1="404" y1="228" x2="470" y2="238" stroke-dasharray="4 5" stroke-opacity="0.08"/>
    <line x1="366" y1="274" x2="408" y2="320" stroke-dasharray="4 5" stroke-opacity="0.08"/>
    <line x1="236" y1="274" x2="188" y2="320" stroke-dasharray="4 5" stroke-opacity="0.08"/>
    <line x1="194" y1="228" x2="128" y2="238" stroke-dasharray="4 5" stroke-opacity="0.08"/>
    <line x1="204" y1="172" x2="150" y2="154" stroke-dasharray="4 5" stroke-opacity="0.08"/>
  </g>

  <path d="M250 210 C270 188 330 188 350 210"
    stroke="#355B4A" stroke-opacity="0.28" stroke-width="1.4" stroke-linecap="round"/>
  <path d="M262 228 C278 210 322 210 338 228"
    stroke="#1E2B25" stroke-opacity="0.20" stroke-width="1.1" stroke-linecap="round"/>

  <g clip-path="url(#ssLeafShape)">
    <rect x="270" y="134" width="30" height="132" fill="url(#ssLeafIvory)"/>
    <rect x="300" y="134" width="30" height="132" fill="url(#ssLeafTech)"/>

    <g stroke="#F7FFFB" stroke-opacity="0.26" stroke-width="0.9">
      <path d="M300 256 L300 144"/>
      <path d="M300 164 L314 176"/>
      <path d="M300 186 L318 198"/>
      <path d="M300 208 L316 222"/>
      <path d="M300 230 L312 242"/>
    </g>
  </g>

  <path d="M300 140
    C288 154 278 176 276 198
    C274 224 286 244 300 258
    C314 244 326 224 324 198
    C322 176 312 154 300 140Z"
    stroke="#1E2B25" stroke-opacity="0.22" stroke-width="1"/>

  <path d="M300 258 L300 280"
    stroke="#1E2B25" stroke-opacity="0.34" stroke-width="1.2" stroke-linecap="round"/>
</svg>
