<svg xmlns="http://www.w3.org/2000/svg" viewBox="0 0 320 160" fill="none">
  <!-- Dark theme: premium hero — radiant leaf with signal rings & stars -->
  <!-- Outermost glow -->
  <circle cx="160" cy="80" r="70" fill="#6FAF9F" opacity="0.03"/>
  <circle cx="160" cy="80" r="50" fill="#6FAF9F" opacity="0.05"/>

  <!-- Signal rings -->
  <circle cx="160" cy="80" r="55" stroke="#6FAF9F" stroke-width="0.6" opacity="0.12" stroke-dasharray="2 8"/>
  <circle cx="160" cy="80" r="42" stroke="#6FAF9F" stroke-width="0.8" opacity="0.18" stroke-dasharray="3 6"/>
  <circle cx="160" cy="80" r="28" stroke="#6FAF9F" stroke-width="1" opacity="0.25"/>

  <!-- Central leaf -->
  <path d="M156 58 C156 58 146 70 146 82 C146 92 151 97 160 97 C169 97 174 92 174 82 C174 70 164 58 164 58 Q160 52 156 58Z"
    stroke="#6FAF9F" stroke-width="1.2" fill="#6FAF9F" fill-opacity="0.08" stroke-linecap="round"/>
  <line x1="160" y1="64" x2="160" y2="92" stroke="#6FAF9F" stroke-width="0.7" opacity="0.35"/>
  <!-- Leaf veins -->
  <path d="M160 72 Q154 75 150 80" stroke="#6FAF9F" stroke-width="0.5" fill="none" opacity="0.2" stroke-linecap="round"/>
  <path d="M160 78 Q166 81 170 84" stroke="#6FAF9F" stroke-width="0.5" fill="none" opacity="0.2" stroke-linecap="round"/>

  <!-- Crown / premium accent above leaf -->
  <g stroke="#F2EFE8" stroke-width="0.8" stroke-linecap="round" opacity="0.3">
    <polyline points="150,48 153,42 156,46 160,38 164,46 167,42 170,48"/>
  </g>

  <!-- Star constellation -->
  <g fill="#6FAF9F">
    <circle cx="90" cy="35" r="1.5" opacity="0.35"/>
    <circle cx="105" cy="50" r="1" opacity="0.25"/>
    <circle cx="75" cy="55" r="0.8" opacity="0.2"/>
    <circle cx="230" cy="40" r="1.2" opacity="0.3"/>
    <circle cx="215" cy="60" r="1" opacity="0.25"/>
    <circle cx="245" cy="55" r="0.8" opacity="0.2"/>
    <circle cx="130" cy="30" r="0.6" opacity="0.15"/>
    <circle cx="190" cy="32" r="0.8" opacity="0.2"/>
  </g>

  <!-- Sparkle crosses -->
  <g stroke="#F2EFE8" stroke-width="0.7" stroke-linecap="round" opacity="0.18">
    <line x1="95" y1="42" x2="95" y2="48"/>
    <line x1="92" y1="45" x2="98" y2="45"/>
    <line x1="225" y1="48" x2="225" y2="54"/>
    <line x1="222" y1="51" x2="228" y2="51"/>
    <line x1="140" y1="110" x2="140" y2="116"/>
    <line x1="137" y1="113" x2="143" y2="113"/>
    <line x1="180" y1="108" x2="180" y2="114"/>
    <line x1="177" y1="111" x2="183" y2="111"/>
  </g>

  <!-- Subtle horizontal line (base) -->
  <line x1="110" y1="120" x2="210" y2="120" stroke="#6FAF9F" stroke-width="0.5" opacity="0.1" stroke-linecap="round"/>
</svg>